<mxfile host="Electron" agent="Mozilla/5.0 (Windows NT 10.0; Win64; x64) AppleWebKit/537.36 (KHTML, like Gecko) draw.io/28.0.4 Chrome/138.0.7204.97 Electron/37.2.1 Safari/537.36" version="28.0.4">
  <diagram name="Page-1" id="0hbDbgDBCHYvoHmBTGHq">
    <mxGraphModel dx="3488" dy="2148" grid="1" gridSize="10" guides="1" tooltips="1" connect="1" arrows="1" fold="1" page="1" pageScale="1" pageWidth="850" pageHeight="1100" math="0" shadow="0">
      <root>
        <mxCell id="0" />
        <mxCell id="1" parent="0" />
        <mxCell id="zpIaBJkbJuNJ4gTKXqP1-1" style="edgeStyle=orthogonalEdgeStyle;rounded=0;orthogonalLoop=1;jettySize=auto;html=1;entryX=0.5;entryY=0;entryDx=0;entryDy=0;" parent="1" source="zpIaBJkbJuNJ4gTKXqP1-3" target="zpIaBJkbJuNJ4gTKXqP1-5" edge="1">
          <mxGeometry relative="1" as="geometry" />
        </mxCell>
        <mxCell id="zpIaBJkbJuNJ4gTKXqP1-2" style="edgeStyle=orthogonalEdgeStyle;rounded=0;orthogonalLoop=1;jettySize=auto;html=1;entryX=0.5;entryY=0;entryDx=0;entryDy=0;" parent="1" source="zpIaBJkbJuNJ4gTKXqP1-3" target="zpIaBJkbJuNJ4gTKXqP1-7" edge="1">
          <mxGeometry relative="1" as="geometry" />
        </mxCell>
        <mxCell id="zpIaBJkbJuNJ4gTKXqP1-3" value="Start" style="rounded=1;arcSize=10;whiteSpace=wrap;html=1;align=center;" parent="1" vertex="1">
          <mxGeometry x="707.5" y="20" width="100" height="40" as="geometry" />
        </mxCell>
        <mxCell id="zpIaBJkbJuNJ4gTKXqP1-4" style="edgeStyle=orthogonalEdgeStyle;rounded=0;orthogonalLoop=1;jettySize=auto;html=1;entryX=0.5;entryY=0;entryDx=0;entryDy=0;" parent="1" source="zpIaBJkbJuNJ4gTKXqP1-5" target="zpIaBJkbJuNJ4gTKXqP1-12" edge="1">
          <mxGeometry relative="1" as="geometry" />
        </mxCell>
        <mxCell id="zpIaBJkbJuNJ4gTKXqP1-5" value="Login" style="rounded=1;arcSize=10;whiteSpace=wrap;html=1;align=center;" parent="1" vertex="1">
          <mxGeometry x="617.5" y="140" width="100" height="40" as="geometry" />
        </mxCell>
        <mxCell id="zpIaBJkbJuNJ4gTKXqP1-6" style="edgeStyle=orthogonalEdgeStyle;rounded=0;orthogonalLoop=1;jettySize=auto;html=1;entryX=0.5;entryY=0;entryDx=0;entryDy=0;" parent="1" source="zpIaBJkbJuNJ4gTKXqP1-7" target="zpIaBJkbJuNJ4gTKXqP1-12" edge="1">
          <mxGeometry relative="1" as="geometry" />
        </mxCell>
        <mxCell id="zpIaBJkbJuNJ4gTKXqP1-7" value="Create account" style="rounded=1;arcSize=10;whiteSpace=wrap;html=1;align=center;" parent="1" vertex="1">
          <mxGeometry x="807.5" y="140" width="100" height="40" as="geometry" />
        </mxCell>
        <mxCell id="zpIaBJkbJuNJ4gTKXqP1-8" style="edgeStyle=orthogonalEdgeStyle;rounded=0;orthogonalLoop=1;jettySize=auto;html=1;entryX=0.5;entryY=0;entryDx=0;entryDy=0;" parent="1" source="zpIaBJkbJuNJ4gTKXqP1-12" target="zpIaBJkbJuNJ4gTKXqP1-14" edge="1">
          <mxGeometry relative="1" as="geometry" />
        </mxCell>
        <mxCell id="zpIaBJkbJuNJ4gTKXqP1-9" style="edgeStyle=orthogonalEdgeStyle;rounded=0;orthogonalLoop=1;jettySize=auto;html=1;entryX=0.5;entryY=0;entryDx=0;entryDy=0;" parent="1" source="zpIaBJkbJuNJ4gTKXqP1-12" target="zpIaBJkbJuNJ4gTKXqP1-16" edge="1">
          <mxGeometry relative="1" as="geometry" />
        </mxCell>
        <mxCell id="zpIaBJkbJuNJ4gTKXqP1-10" style="edgeStyle=orthogonalEdgeStyle;rounded=0;orthogonalLoop=1;jettySize=auto;html=1;entryX=0.5;entryY=0;entryDx=0;entryDy=0;" parent="1" source="zpIaBJkbJuNJ4gTKXqP1-12" target="zpIaBJkbJuNJ4gTKXqP1-18" edge="1">
          <mxGeometry relative="1" as="geometry" />
        </mxCell>
        <mxCell id="zpIaBJkbJuNJ4gTKXqP1-11" style="edgeStyle=orthogonalEdgeStyle;rounded=0;orthogonalLoop=1;jettySize=auto;html=1;entryX=0.5;entryY=0;entryDx=0;entryDy=0;" parent="1" source="zpIaBJkbJuNJ4gTKXqP1-12" target="zpIaBJkbJuNJ4gTKXqP1-21" edge="1">
          <mxGeometry relative="1" as="geometry" />
        </mxCell>
        <mxCell id="zpIaBJkbJuNJ4gTKXqP1-12" value="Dashboard" style="rounded=1;arcSize=10;whiteSpace=wrap;html=1;align=center;" parent="1" vertex="1">
          <mxGeometry x="680" y="280" width="100" height="40" as="geometry" />
        </mxCell>
        <mxCell id="zpIaBJkbJuNJ4gTKXqP1-13" value="" style="edgeStyle=orthogonalEdgeStyle;rounded=0;orthogonalLoop=1;jettySize=auto;html=1;" parent="1" source="zpIaBJkbJuNJ4gTKXqP1-14" target="zpIaBJkbJuNJ4gTKXqP1-22" edge="1">
          <mxGeometry relative="1" as="geometry" />
        </mxCell>
        <mxCell id="zpIaBJkbJuNJ4gTKXqP1-14" value="All booked tickets" style="rounded=1;arcSize=10;whiteSpace=wrap;html=1;align=center;" parent="1" vertex="1">
          <mxGeometry x="510" y="360" width="100" height="40" as="geometry" />
        </mxCell>
        <mxCell id="zpIaBJkbJuNJ4gTKXqP1-15" value="" style="edgeStyle=orthogonalEdgeStyle;rounded=0;orthogonalLoop=1;jettySize=auto;html=1;" parent="1" source="zpIaBJkbJuNJ4gTKXqP1-16" target="zpIaBJkbJuNJ4gTKXqP1-29" edge="1">
          <mxGeometry relative="1" as="geometry" />
        </mxCell>
        <mxCell id="zpIaBJkbJuNJ4gTKXqP1-16" value="History" style="rounded=1;arcSize=10;whiteSpace=wrap;html=1;align=center;" parent="1" vertex="1">
          <mxGeometry x="625" y="360" width="100" height="40" as="geometry" />
        </mxCell>
        <mxCell id="zpIaBJkbJuNJ4gTKXqP1-17" value="" style="edgeStyle=orthogonalEdgeStyle;rounded=0;orthogonalLoop=1;jettySize=auto;html=1;" parent="1" source="zpIaBJkbJuNJ4gTKXqP1-18" target="zpIaBJkbJuNJ4gTKXqP1-35" edge="1">
          <mxGeometry relative="1" as="geometry" />
        </mxCell>
        <mxCell id="zpIaBJkbJuNJ4gTKXqP1-18" value="Book new ticket" style="rounded=1;arcSize=10;whiteSpace=wrap;html=1;align=center;" parent="1" vertex="1">
          <mxGeometry x="1040" y="360" width="100" height="40" as="geometry" />
        </mxCell>
        <mxCell id="zpIaBJkbJuNJ4gTKXqP1-19" value="" style="edgeStyle=orthogonalEdgeStyle;rounded=0;orthogonalLoop=1;jettySize=auto;html=1;" parent="1" source="zpIaBJkbJuNJ4gTKXqP1-21" target="zpIaBJkbJuNJ4gTKXqP1-70" edge="1">
          <mxGeometry relative="1" as="geometry" />
        </mxCell>
        <mxCell id="zpIaBJkbJuNJ4gTKXqP1-20" style="edgeStyle=orthogonalEdgeStyle;rounded=0;orthogonalLoop=1;jettySize=auto;html=1;entryX=0.5;entryY=0;entryDx=0;entryDy=0;" parent="1" source="zpIaBJkbJuNJ4gTKXqP1-21" target="zpIaBJkbJuNJ4gTKXqP1-71" edge="1">
          <mxGeometry relative="1" as="geometry" />
        </mxCell>
        <mxCell id="zpIaBJkbJuNJ4gTKXqP1-21" value="App settings" style="rounded=1;arcSize=10;whiteSpace=wrap;html=1;align=center;" parent="1" vertex="1">
          <mxGeometry x="1840" y="340" width="100" height="40" as="geometry" />
        </mxCell>
        <mxCell id="zpIaBJkbJuNJ4gTKXqP1-22" value="Show tickets" style="rounded=1;arcSize=10;whiteSpace=wrap;html=1;align=center;" parent="1" vertex="1">
          <mxGeometry x="510" y="440" width="100" height="40" as="geometry" />
        </mxCell>
        <mxCell id="zpIaBJkbJuNJ4gTKXqP1-23" value="" style="edgeStyle=orthogonalEdgeStyle;rounded=0;orthogonalLoop=1;jettySize=auto;html=1;" parent="1" source="zpIaBJkbJuNJ4gTKXqP1-24" target="zpIaBJkbJuNJ4gTKXqP1-22" edge="1">
          <mxGeometry relative="1" as="geometry" />
        </mxCell>
        <mxCell id="zpIaBJkbJuNJ4gTKXqP1-24" value="Cancel ticket" style="rounded=1;arcSize=10;whiteSpace=wrap;html=1;align=center;" parent="1" vertex="1">
          <mxGeometry x="350" y="440" width="100" height="40" as="geometry" />
        </mxCell>
        <mxCell id="zpIaBJkbJuNJ4gTKXqP1-25" style="edgeStyle=orthogonalEdgeStyle;rounded=0;orthogonalLoop=1;jettySize=auto;html=1;entryX=0;entryY=0.75;entryDx=0;entryDy=0;" parent="1" source="zpIaBJkbJuNJ4gTKXqP1-26" target="zpIaBJkbJuNJ4gTKXqP1-22" edge="1">
          <mxGeometry relative="1" as="geometry" />
        </mxCell>
        <mxCell id="zpIaBJkbJuNJ4gTKXqP1-26" value="Show details" style="rounded=1;arcSize=10;whiteSpace=wrap;html=1;align=center;" parent="1" vertex="1">
          <mxGeometry x="350" y="500" width="100" height="40" as="geometry" />
        </mxCell>
        <mxCell id="zpIaBJkbJuNJ4gTKXqP1-27" style="edgeStyle=orthogonalEdgeStyle;rounded=0;orthogonalLoop=1;jettySize=auto;html=1;entryX=0;entryY=1;entryDx=0;entryDy=0;" parent="1" source="zpIaBJkbJuNJ4gTKXqP1-28" target="zpIaBJkbJuNJ4gTKXqP1-22" edge="1">
          <mxGeometry relative="1" as="geometry" />
        </mxCell>
        <mxCell id="zpIaBJkbJuNJ4gTKXqP1-28" value="Mark ticket (QR part)" style="rounded=1;arcSize=10;whiteSpace=wrap;html=1;align=center;" parent="1" vertex="1">
          <mxGeometry x="350" y="560" width="100" height="40" as="geometry" />
        </mxCell>
        <mxCell id="zpIaBJkbJuNJ4gTKXqP1-29" value="View cancelled and marked tickets" style="rounded=1;arcSize=10;whiteSpace=wrap;html=1;align=center;" parent="1" vertex="1">
          <mxGeometry x="625" y="440" width="100" height="60" as="geometry" />
        </mxCell>
        <mxCell id="zpIaBJkbJuNJ4gTKXqP1-30" value="" style="edgeStyle=orthogonalEdgeStyle;rounded=0;orthogonalLoop=1;jettySize=auto;html=1;" parent="1" source="zpIaBJkbJuNJ4gTKXqP1-31" target="zpIaBJkbJuNJ4gTKXqP1-29" edge="1">
          <mxGeometry relative="1" as="geometry" />
        </mxCell>
        <mxCell id="zpIaBJkbJuNJ4gTKXqP1-31" value="Delete from history" style="rounded=1;arcSize=10;whiteSpace=wrap;html=1;align=center;" parent="1" vertex="1">
          <mxGeometry x="760" y="460" width="100" height="40" as="geometry" />
        </mxCell>
        <mxCell id="zpIaBJkbJuNJ4gTKXqP1-32" style="edgeStyle=orthogonalEdgeStyle;rounded=0;orthogonalLoop=1;jettySize=auto;html=1;entryX=0.5;entryY=1;entryDx=0;entryDy=0;" parent="1" source="zpIaBJkbJuNJ4gTKXqP1-33" target="zpIaBJkbJuNJ4gTKXqP1-29" edge="1">
          <mxGeometry relative="1" as="geometry" />
        </mxCell>
        <mxCell id="zpIaBJkbJuNJ4gTKXqP1-33" value="View information (include a map)" style="rounded=1;arcSize=10;whiteSpace=wrap;html=1;align=center;" parent="1" vertex="1">
          <mxGeometry x="760" y="520" width="100" height="40" as="geometry" />
        </mxCell>
        <mxCell id="zpIaBJkbJuNJ4gTKXqP1-34" value="" style="edgeStyle=orthogonalEdgeStyle;rounded=0;orthogonalLoop=1;jettySize=auto;html=1;" parent="1" source="zpIaBJkbJuNJ4gTKXqP1-35" target="zpIaBJkbJuNJ4gTKXqP1-37" edge="1">
          <mxGeometry relative="1" as="geometry" />
        </mxCell>
        <mxCell id="zpIaBJkbJuNJ4gTKXqP1-35" value="Enter leaving location, arriving location, passenger count and date" style="rounded=1;arcSize=10;whiteSpace=wrap;html=1;align=center;" parent="1" vertex="1">
          <mxGeometry x="1030" y="440" width="120" height="70" as="geometry" />
        </mxCell>
        <mxCell id="zpIaBJkbJuNJ4gTKXqP1-36" value="" style="edgeStyle=orthogonalEdgeStyle;rounded=0;orthogonalLoop=1;jettySize=auto;html=1;" parent="1" source="zpIaBJkbJuNJ4gTKXqP1-37" target="zpIaBJkbJuNJ4gTKXqP1-40" edge="1">
          <mxGeometry relative="1" as="geometry" />
        </mxCell>
        <mxCell id="zpIaBJkbJuNJ4gTKXqP1-37" value="Check availability" style="rounded=1;arcSize=10;whiteSpace=wrap;html=1;align=center;" parent="1" vertex="1">
          <mxGeometry x="1040" y="560" width="100" height="40" as="geometry" />
        </mxCell>
        <mxCell id="zpIaBJkbJuNJ4gTKXqP1-38" value="" style="edgeStyle=orthogonalEdgeStyle;rounded=0;orthogonalLoop=1;jettySize=auto;html=1;" parent="1" source="zpIaBJkbJuNJ4gTKXqP1-40" target="zpIaBJkbJuNJ4gTKXqP1-47" edge="1">
          <mxGeometry relative="1" as="geometry" />
        </mxCell>
        <mxCell id="zpIaBJkbJuNJ4gTKXqP1-39" value="" style="edgeStyle=orthogonalEdgeStyle;rounded=0;orthogonalLoop=1;jettySize=auto;html=1;" parent="1" source="zpIaBJkbJuNJ4gTKXqP1-40" target="zpIaBJkbJuNJ4gTKXqP1-48" edge="1">
          <mxGeometry relative="1" as="geometry" />
        </mxCell>
        <mxCell id="zpIaBJkbJuNJ4gTKXqP1-40" value="if&amp;nbsp;" style="strokeWidth=2;html=1;shape=mxgraph.flowchart.decision;whiteSpace=wrap;" parent="1" vertex="1">
          <mxGeometry x="1040" y="620" width="100" height="80" as="geometry" />
        </mxCell>
        <mxCell id="zpIaBJkbJuNJ4gTKXqP1-41" value="" style="edgeStyle=orthogonalEdgeStyle;rounded=0;orthogonalLoop=1;jettySize=auto;html=1;" parent="1" source="zpIaBJkbJuNJ4gTKXqP1-47" target="zpIaBJkbJuNJ4gTKXqP1-52" edge="1">
          <mxGeometry relative="1" as="geometry" />
        </mxCell>
        <mxCell id="zpIaBJkbJuNJ4gTKXqP1-42" style="edgeStyle=orthogonalEdgeStyle;rounded=0;orthogonalLoop=1;jettySize=auto;html=1;entryX=0;entryY=0.5;entryDx=0;entryDy=0;" parent="1" source="zpIaBJkbJuNJ4gTKXqP1-47" target="zpIaBJkbJuNJ4gTKXqP1-59" edge="1">
          <mxGeometry relative="1" as="geometry" />
        </mxCell>
        <mxCell id="zpIaBJkbJuNJ4gTKXqP1-43" style="edgeStyle=orthogonalEdgeStyle;rounded=0;orthogonalLoop=1;jettySize=auto;html=1;entryX=0.006;entryY=0.422;entryDx=0;entryDy=0;entryPerimeter=0;" parent="1" source="zpIaBJkbJuNJ4gTKXqP1-47" target="zpIaBJkbJuNJ4gTKXqP1-61" edge="1">
          <mxGeometry relative="1" as="geometry">
            <mxPoint x="1530" y="750" as="targetPoint" />
            <Array as="points">
              <mxPoint x="1463" y="680" />
              <mxPoint x="1463" y="715" />
            </Array>
          </mxGeometry>
        </mxCell>
        <mxCell id="zpIaBJkbJuNJ4gTKXqP1-44" style="edgeStyle=orthogonalEdgeStyle;rounded=0;orthogonalLoop=1;jettySize=auto;html=1;entryX=0;entryY=0.5;entryDx=0;entryDy=0;" parent="1" source="zpIaBJkbJuNJ4gTKXqP1-47" target="zpIaBJkbJuNJ4gTKXqP1-62" edge="1">
          <mxGeometry relative="1" as="geometry">
            <Array as="points">
              <mxPoint x="1463" y="680" />
              <mxPoint x="1463" y="790" />
            </Array>
          </mxGeometry>
        </mxCell>
        <mxCell id="zpIaBJkbJuNJ4gTKXqP1-45" style="edgeStyle=orthogonalEdgeStyle;rounded=0;orthogonalLoop=1;jettySize=auto;html=1;entryX=0;entryY=0.5;entryDx=0;entryDy=0;" parent="1" source="zpIaBJkbJuNJ4gTKXqP1-47" target="zpIaBJkbJuNJ4gTKXqP1-63" edge="1">
          <mxGeometry relative="1" as="geometry">
            <Array as="points">
              <mxPoint x="1463" y="680" />
              <mxPoint x="1463" y="860" />
            </Array>
          </mxGeometry>
        </mxCell>
        <mxCell id="zpIaBJkbJuNJ4gTKXqP1-46" style="edgeStyle=orthogonalEdgeStyle;rounded=0;orthogonalLoop=1;jettySize=auto;html=1;" parent="1" source="zpIaBJkbJuNJ4gTKXqP1-47" target="zpIaBJkbJuNJ4gTKXqP1-64" edge="1">
          <mxGeometry relative="1" as="geometry">
            <Array as="points">
              <mxPoint x="1270" y="600" />
              <mxPoint x="1463" y="600" />
              <mxPoint x="1463" y="570" />
            </Array>
          </mxGeometry>
        </mxCell>
        <mxCell id="zpIaBJkbJuNJ4gTKXqP1-47" value="Show the trains with information" style="rounded=1;arcSize=10;whiteSpace=wrap;html=1;align=center;" parent="1" vertex="1">
          <mxGeometry x="1210" y="630" width="120" height="60" as="geometry" />
        </mxCell>
        <mxCell id="zpIaBJkbJuNJ4gTKXqP1-48" value="No trains" style="rounded=1;arcSize=10;whiteSpace=wrap;html=1;align=center;" parent="1" vertex="1">
          <mxGeometry x="860" y="630" width="120" height="60" as="geometry" />
        </mxCell>
        <mxCell id="zpIaBJkbJuNJ4gTKXqP1-49" value="" style="edgeStyle=orthogonalEdgeStyle;rounded=0;orthogonalLoop=1;jettySize=auto;html=1;" parent="1" target="zpIaBJkbJuNJ4gTKXqP1-54" edge="1">
          <mxGeometry relative="1" as="geometry">
            <mxPoint x="1270" y="700" as="sourcePoint" />
          </mxGeometry>
        </mxCell>
        <mxCell id="zpIaBJkbJuNJ4gTKXqP1-50" value="" style="edgeStyle=orthogonalEdgeStyle;rounded=0;orthogonalLoop=1;jettySize=auto;html=1;" parent="1" source="zpIaBJkbJuNJ4gTKXqP1-52" target="zpIaBJkbJuNJ4gTKXqP1-56" edge="1">
          <mxGeometry relative="1" as="geometry" />
        </mxCell>
        <mxCell id="zpIaBJkbJuNJ4gTKXqP1-51" style="edgeStyle=orthogonalEdgeStyle;rounded=0;orthogonalLoop=1;jettySize=auto;html=1;entryX=0;entryY=0.5;entryDx=0;entryDy=0;" parent="1" source="zpIaBJkbJuNJ4gTKXqP1-52" target="zpIaBJkbJuNJ4gTKXqP1-66" edge="1">
          <mxGeometry relative="1" as="geometry">
            <Array as="points">
              <mxPoint x="1410" y="750" />
              <mxPoint x="1410" y="910" />
              <mxPoint x="1463" y="910" />
              <mxPoint x="1463" y="940" />
            </Array>
          </mxGeometry>
        </mxCell>
        <mxCell id="zpIaBJkbJuNJ4gTKXqP1-52" value="Enter (primary) passenger details" style="rounded=1;arcSize=10;whiteSpace=wrap;html=1;align=center;" parent="1" vertex="1">
          <mxGeometry x="1210" y="720" width="120" height="60" as="geometry" />
        </mxCell>
        <mxCell id="zpIaBJkbJuNJ4gTKXqP1-53" value="" style="edgeStyle=orthogonalEdgeStyle;rounded=0;orthogonalLoop=1;jettySize=auto;html=1;" parent="1" source="zpIaBJkbJuNJ4gTKXqP1-54" target="zpIaBJkbJuNJ4gTKXqP1-57" edge="1">
          <mxGeometry relative="1" as="geometry" />
        </mxCell>
        <mxCell id="zpIaBJkbJuNJ4gTKXqP1-54" value="Make the payment" style="rounded=1;arcSize=10;whiteSpace=wrap;html=1;align=center;" parent="1" vertex="1">
          <mxGeometry x="1210" y="880" width="120" height="60" as="geometry" />
        </mxCell>
        <mxCell id="zpIaBJkbJuNJ4gTKXqP1-55" value="" style="edgeStyle=orthogonalEdgeStyle;rounded=0;orthogonalLoop=1;jettySize=auto;html=1;" parent="1" source="zpIaBJkbJuNJ4gTKXqP1-56" target="zpIaBJkbJuNJ4gTKXqP1-57" edge="1">
          <mxGeometry relative="1" as="geometry" />
        </mxCell>
        <mxCell id="zpIaBJkbJuNJ4gTKXqP1-56" value="Save ticket" style="rounded=1;arcSize=10;whiteSpace=wrap;html=1;align=center;" parent="1" vertex="1">
          <mxGeometry x="1210" y="960" width="120" height="60" as="geometry" />
        </mxCell>
        <mxCell id="zpIaBJkbJuNJ4gTKXqP1-57" value="Return to home" style="rounded=1;arcSize=10;whiteSpace=wrap;html=1;align=center;" parent="1" vertex="1">
          <mxGeometry x="1210" y="1040" width="120" height="60" as="geometry" />
        </mxCell>
        <mxCell id="zpIaBJkbJuNJ4gTKXqP1-58" value="" style="edgeStyle=orthogonalEdgeStyle;rounded=0;orthogonalLoop=1;jettySize=auto;html=1;" parent="1" source="zpIaBJkbJuNJ4gTKXqP1-59" target="zpIaBJkbJuNJ4gTKXqP1-60" edge="1">
          <mxGeometry relative="1" as="geometry" />
        </mxCell>
        <mxCell id="zpIaBJkbJuNJ4gTKXqP1-59" value="Train name" style="rounded=1;arcSize=10;whiteSpace=wrap;html=1;align=center;" parent="1" vertex="1">
          <mxGeometry x="1420" y="630" width="120" height="40" as="geometry" />
        </mxCell>
        <mxCell id="zpIaBJkbJuNJ4gTKXqP1-60" value="Departs &amp;amp; arrive location + time range for the trip" style="rounded=1;arcSize=10;whiteSpace=wrap;html=1;align=center;" parent="1" vertex="1">
          <mxGeometry x="1595" y="625" width="120" height="50" as="geometry" />
        </mxCell>
        <mxCell id="zpIaBJkbJuNJ4gTKXqP1-61" value="Depart and arrival time for the selection" style="rounded=1;arcSize=10;whiteSpace=wrap;html=1;align=center;" parent="1" vertex="1">
          <mxGeometry x="1595" y="690" width="120" height="60" as="geometry" />
        </mxCell>
        <mxCell id="zpIaBJkbJuNJ4gTKXqP1-62" value="Available classes and seats available" style="rounded=1;arcSize=10;whiteSpace=wrap;html=1;align=center;" parent="1" vertex="1">
          <mxGeometry x="1595" y="760" width="120" height="60" as="geometry" />
        </mxCell>
        <mxCell id="zpIaBJkbJuNJ4gTKXqP1-63" value="Price per person (seat)" style="rounded=1;arcSize=10;whiteSpace=wrap;html=1;align=center;" parent="1" vertex="1">
          <mxGeometry x="1595" y="840" width="120" height="40" as="geometry" />
        </mxCell>
        <mxCell id="zpIaBJkbJuNJ4gTKXqP1-64" value="Change seat count" style="rounded=1;arcSize=10;whiteSpace=wrap;html=1;align=center;" parent="1" vertex="1">
          <mxGeometry x="1595" y="570" width="120" height="40" as="geometry" />
        </mxCell>
        <mxCell id="zpIaBJkbJuNJ4gTKXqP1-65" style="edgeStyle=orthogonalEdgeStyle;rounded=0;orthogonalLoop=1;jettySize=auto;html=1;" parent="1" edge="1">
          <mxGeometry relative="1" as="geometry">
            <mxPoint x="1280" y="840" as="targetPoint" />
            <mxPoint x="1595" y="950" as="sourcePoint" />
            <Array as="points">
              <mxPoint x="1370" y="950" />
              <mxPoint x="1370" y="840" />
            </Array>
          </mxGeometry>
        </mxCell>
        <mxCell id="zpIaBJkbJuNJ4gTKXqP1-66" value="Current summery" style="rounded=1;arcSize=10;whiteSpace=wrap;html=1;align=center;" parent="1" vertex="1">
          <mxGeometry x="1595" y="910" width="120" height="60" as="geometry" />
        </mxCell>
        <mxCell id="zpIaBJkbJuNJ4gTKXqP1-67" style="edgeStyle=orthogonalEdgeStyle;rounded=0;orthogonalLoop=1;jettySize=auto;html=1;" parent="1" source="zpIaBJkbJuNJ4gTKXqP1-68" edge="1">
          <mxGeometry relative="1" as="geometry">
            <mxPoint x="1269.9999999999998" y="820" as="targetPoint" />
          </mxGeometry>
        </mxCell>
        <mxCell id="zpIaBJkbJuNJ4gTKXqP1-68" value="Enter other passenger details" style="rounded=1;arcSize=10;whiteSpace=wrap;html=1;align=center;" parent="1" vertex="1">
          <mxGeometry x="1020" y="790" width="120" height="60" as="geometry" />
        </mxCell>
        <mxCell id="zpIaBJkbJuNJ4gTKXqP1-69" value="LogOut" style="rounded=1;arcSize=10;whiteSpace=wrap;html=1;align=center;" parent="1" vertex="1">
          <mxGeometry x="1700" y="420" width="100" height="40" as="geometry" />
        </mxCell>
        <mxCell id="zpIaBJkbJuNJ4gTKXqP1-70" value="Notification settings" style="rounded=1;arcSize=10;whiteSpace=wrap;html=1;align=center;" parent="1" vertex="1">
          <mxGeometry x="1820" y="420" width="120" height="60" as="geometry" />
        </mxCell>
        <mxCell id="zpIaBJkbJuNJ4gTKXqP1-71" value="Theme" style="rounded=1;arcSize=10;whiteSpace=wrap;html=1;align=center;" parent="1" vertex="1">
          <mxGeometry x="1960" y="420" width="120" height="40" as="geometry" />
        </mxCell>
        <mxCell id="zpIaBJkbJuNJ4gTKXqP1-72" value="Terms and conditions" style="rounded=1;arcSize=10;whiteSpace=wrap;html=1;align=center;" parent="1" vertex="1">
          <mxGeometry x="2110" y="420" width="120" height="60" as="geometry" />
        </mxCell>
        <mxCell id="zpIaBJkbJuNJ4gTKXqP1-73" value="About" style="rounded=1;arcSize=10;whiteSpace=wrap;html=1;align=center;" parent="1" vertex="1">
          <mxGeometry x="2260" y="420" width="100" height="40" as="geometry" />
        </mxCell>
        <mxCell id="zpIaBJkbJuNJ4gTKXqP1-74" style="edgeStyle=orthogonalEdgeStyle;rounded=0;orthogonalLoop=1;jettySize=auto;html=1;entryX=0.647;entryY=0.068;entryDx=0;entryDy=0;entryPerimeter=0;" parent="1" source="zpIaBJkbJuNJ4gTKXqP1-21" target="zpIaBJkbJuNJ4gTKXqP1-69" edge="1">
          <mxGeometry relative="1" as="geometry" />
        </mxCell>
        <mxCell id="zpIaBJkbJuNJ4gTKXqP1-75" style="edgeStyle=orthogonalEdgeStyle;rounded=0;orthogonalLoop=1;jettySize=auto;html=1;entryX=0.622;entryY=-0.007;entryDx=0;entryDy=0;entryPerimeter=0;" parent="1" source="zpIaBJkbJuNJ4gTKXqP1-21" target="zpIaBJkbJuNJ4gTKXqP1-72" edge="1">
          <mxGeometry relative="1" as="geometry" />
        </mxCell>
        <mxCell id="zpIaBJkbJuNJ4gTKXqP1-76" style="edgeStyle=orthogonalEdgeStyle;rounded=0;orthogonalLoop=1;jettySize=auto;html=1;entryX=0.573;entryY=-0.037;entryDx=0;entryDy=0;entryPerimeter=0;" parent="1" source="zpIaBJkbJuNJ4gTKXqP1-21" target="zpIaBJkbJuNJ4gTKXqP1-73" edge="1">
          <mxGeometry relative="1" as="geometry" />
        </mxCell>
        <mxCell id="zpIaBJkbJuNJ4gTKXqP1-77" value="&lt;h1 style=&quot;margin-top: 0px;&quot;&gt;Customer workflow&lt;/h1&gt;" style="text;html=1;whiteSpace=wrap;overflow=hidden;rounded=0;" parent="1" vertex="1">
          <mxGeometry x="310" y="20" width="180" height="70" as="geometry" />
        </mxCell>
        <mxCell id="F-ULbswy7or0W5wsuuDO-1" value="&lt;h1 style=&quot;margin-top: 0px;&quot;&gt;Admin part&lt;/h1&gt;" style="text;html=1;whiteSpace=wrap;overflow=hidden;rounded=0;" vertex="1" parent="1">
          <mxGeometry x="310" y="1050" width="180" height="50" as="geometry" />
        </mxCell>
        <mxCell id="F-ULbswy7or0W5wsuuDO-2" value="" style="edgeStyle=orthogonalEdgeStyle;rounded=0;orthogonalLoop=1;jettySize=auto;html=1;" edge="1" parent="1" source="F-ULbswy7or0W5wsuuDO-3" target="F-ULbswy7or0W5wsuuDO-8">
          <mxGeometry relative="1" as="geometry" />
        </mxCell>
        <mxCell id="F-ULbswy7or0W5wsuuDO-3" value="Start" style="rounded=1;arcSize=10;whiteSpace=wrap;html=1;align=center;" vertex="1" parent="1">
          <mxGeometry x="570" y="1050" width="100" height="40" as="geometry" />
        </mxCell>
        <mxCell id="F-ULbswy7or0W5wsuuDO-4" value="Login" style="rounded=1;arcSize=10;whiteSpace=wrap;html=1;align=center;" vertex="1" parent="1">
          <mxGeometry x="570" y="1110" width="100" height="40" as="geometry" />
        </mxCell>
        <mxCell id="F-ULbswy7or0W5wsuuDO-5" value="" style="edgeStyle=orthogonalEdgeStyle;rounded=0;orthogonalLoop=1;jettySize=auto;html=1;" edge="1" parent="1" source="F-ULbswy7or0W5wsuuDO-8" target="F-ULbswy7or0W5wsuuDO-9">
          <mxGeometry relative="1" as="geometry" />
        </mxCell>
        <mxCell id="F-ULbswy7or0W5wsuuDO-6" style="edgeStyle=orthogonalEdgeStyle;rounded=0;orthogonalLoop=1;jettySize=auto;html=1;entryX=0.5;entryY=0;entryDx=0;entryDy=0;" edge="1" parent="1" source="F-ULbswy7or0W5wsuuDO-8" target="F-ULbswy7or0W5wsuuDO-11">
          <mxGeometry relative="1" as="geometry" />
        </mxCell>
        <mxCell id="F-ULbswy7or0W5wsuuDO-7" style="edgeStyle=orthogonalEdgeStyle;rounded=0;orthogonalLoop=1;jettySize=auto;html=1;entryX=0.5;entryY=0;entryDx=0;entryDy=0;" edge="1" parent="1" source="F-ULbswy7or0W5wsuuDO-8" target="F-ULbswy7or0W5wsuuDO-19">
          <mxGeometry relative="1" as="geometry" />
        </mxCell>
        <mxCell id="F-ULbswy7or0W5wsuuDO-8" value="Dashboard" style="rounded=1;arcSize=10;whiteSpace=wrap;html=1;align=center;" vertex="1" parent="1">
          <mxGeometry x="570" y="1170" width="100" height="40" as="geometry" />
        </mxCell>
        <mxCell id="F-ULbswy7or0W5wsuuDO-9" value="Add trains" style="rounded=1;arcSize=10;whiteSpace=wrap;html=1;align=center;" vertex="1" parent="1">
          <mxGeometry x="570" y="1250" width="100" height="40" as="geometry" />
        </mxCell>
        <mxCell id="F-ULbswy7or0W5wsuuDO-10" value="Manage trains (RUD operations)" style="rounded=1;arcSize=10;whiteSpace=wrap;html=1;align=center;" vertex="1" parent="1">
          <mxGeometry x="410" y="1250" width="100" height="40" as="geometry" />
        </mxCell>
        <mxCell id="F-ULbswy7or0W5wsuuDO-11" value="view accounts (customer)" style="rounded=1;arcSize=10;whiteSpace=wrap;html=1;align=center;" vertex="1" parent="1">
          <mxGeometry x="730" y="1250" width="100" height="40" as="geometry" />
        </mxCell>
        <mxCell id="F-ULbswy7or0W5wsuuDO-12" value="" style="edgeStyle=orthogonalEdgeStyle;rounded=0;orthogonalLoop=1;jettySize=auto;html=1;" edge="1" parent="1" source="F-ULbswy7or0W5wsuuDO-13" target="F-ULbswy7or0W5wsuuDO-11">
          <mxGeometry relative="1" as="geometry" />
        </mxCell>
        <mxCell id="F-ULbswy7or0W5wsuuDO-13" value="View details" style="rounded=1;arcSize=10;whiteSpace=wrap;html=1;align=center;" vertex="1" parent="1">
          <mxGeometry x="730" y="1330" width="100" height="40" as="geometry" />
        </mxCell>
        <mxCell id="F-ULbswy7or0W5wsuuDO-14" style="edgeStyle=orthogonalEdgeStyle;rounded=0;orthogonalLoop=1;jettySize=auto;html=1;entryX=0.75;entryY=1;entryDx=0;entryDy=0;" edge="1" parent="1" source="F-ULbswy7or0W5wsuuDO-15" target="F-ULbswy7or0W5wsuuDO-11">
          <mxGeometry relative="1" as="geometry">
            <Array as="points">
              <mxPoint x="900" y="1310" />
              <mxPoint x="805" y="1310" />
            </Array>
          </mxGeometry>
        </mxCell>
        <mxCell id="F-ULbswy7or0W5wsuuDO-15" value="View tickets booked" style="rounded=1;arcSize=10;whiteSpace=wrap;html=1;align=center;" vertex="1" parent="1">
          <mxGeometry x="850" y="1330" width="100" height="40" as="geometry" />
        </mxCell>
        <mxCell id="F-ULbswy7or0W5wsuuDO-16" style="edgeStyle=orthogonalEdgeStyle;rounded=0;orthogonalLoop=1;jettySize=auto;html=1;entryX=1;entryY=0.5;entryDx=0;entryDy=0;" edge="1" parent="1" source="F-ULbswy7or0W5wsuuDO-17" target="F-ULbswy7or0W5wsuuDO-11">
          <mxGeometry relative="1" as="geometry">
            <Array as="points">
              <mxPoint x="1030" y="1280" />
              <mxPoint x="905" y="1280" />
              <mxPoint x="905" y="1270" />
            </Array>
          </mxGeometry>
        </mxCell>
        <mxCell id="F-ULbswy7or0W5wsuuDO-17" value="View activity history" style="rounded=1;arcSize=10;whiteSpace=wrap;html=1;align=center;" vertex="1" parent="1">
          <mxGeometry x="980" y="1330" width="100" height="40" as="geometry" />
        </mxCell>
        <mxCell id="F-ULbswy7or0W5wsuuDO-18" style="edgeStyle=orthogonalEdgeStyle;rounded=0;orthogonalLoop=1;jettySize=auto;html=1;entryX=0.448;entryY=-0.033;entryDx=0;entryDy=0;entryPerimeter=0;" edge="1" parent="1" source="F-ULbswy7or0W5wsuuDO-8" target="F-ULbswy7or0W5wsuuDO-10">
          <mxGeometry relative="1" as="geometry" />
        </mxCell>
        <mxCell id="F-ULbswy7or0W5wsuuDO-19" value="Settings" style="rounded=1;arcSize=10;whiteSpace=wrap;html=1;align=center;" vertex="1" parent="1">
          <mxGeometry x="1050" y="1250" width="100" height="40" as="geometry" />
        </mxCell>
      </root>
    </mxGraphModel>
  </diagram>
</mxfile>
